<?xml version="1.0" encoding="UTF-8"?>
<svg id="logo-enigm" xmlns="http://www.w3.org/2000/svg" width="1500" height="1688" version="1.1" viewBox="0 0 1500 1688">
  <!-- Generator: Adobe Illustrator 30.3.0, SVG Export Plug-In . SVG Version: 2.1.3 Build 182)  -->
  <path d="M760,1684.5h-27l-24-4-36-14L73,1319.5l-19-14-18.5-18.5-13-18-13-26-7-23-2.5-19v-119l244.5-142L2.5,800v-313l3-19,7-23,15-29,13-17,15.5-15.5,29-20L677,22.5l34-14,27-5h28l14,2,17,4,25,10,258,149,8.5,6.5-749,431,238.5,138.5,349.5,190.5-1.5,2.5-420.5,242.5,241.5,139.5,731-422,17.5-8.5v309l-3,21-8,26-13,25-16,21-22.5,20.5-22,14-591,341-29,12-31,6ZM1267,742.5l-344.5-190.5,403.5-233.5,8-3,102,60,26.5,24.5,16,22,12,25,9,37v124l-232.5,134.5Z" fill="#fff" fill-rule="evenodd"/>
</svg>