<?xml version="1.0" encoding="UTF-8"?>
<svg id="logo-enigm" xmlns="http://www.w3.org/2000/svg" viewBox="0 0 1500 1688" width="1500" height="1688" role="img" aria-label="logo-enigm">
  <path fill="#000000" fill-rule="evenodd" d="
    M 760.00 1684.50 L 733.00 1684.50 L 709.00 1680.50 L 673.00 1666.50 L 73.00 1319.50 L 54.00 1305.50 L 35.50 1287.00 L 22.50 1269.00 L 9.50 1243.00 L 2.50 1220.00 L 0.00 1201.00 L 0.00 1082.00 L 244.50 940.00 L 2.50 800.00 L 2.50 487.00 L 5.50 468.00 L 12.50 445.00 L 27.50 416.00 L 40.50 399.00 L 56.00 383.50 L 85.00 363.50 L 677.00 22.50 L 711.00 8.50 L 738.00 3.50 L 766.00 3.50 L 780.00 5.50 L 797.00 9.50 L 822.00 19.50 L 1080.00 168.50 L 1088.50 175.00 L 339.50 606.00 L 578.00 744.50 L 927.50 935.00 L 926.00 937.50 L 505.50 1180.00 L 747.00 1319.50 L 1478.00 897.50 L 1495.50 889.00 L 1495.50 1198.00 L 1492.50 1219.00 L 1484.50 1245.00 L 1471.50 1270.00 L 1455.50 1291.00 L 1433.00 1311.50 L 1411.00 1325.50 L 820.00 1666.50 L 791.00 1678.50 L 760.00 1684.50 Z
    M 1267.00 742.50 L 922.50 552.00 L 1326.00 318.50 L 1334.00 315.50 L 1436.00 375.50 L 1462.50 400.00 L 1478.50 422.00 L 1490.50 447.00 L 1499.50 484.00 L 1499.50 608.00 L 1267.00 742.50 Z
  "/>
</svg>
