<?xml version="1.0" encoding="UTF-8"?>
<svg id="logo-enigm-comp" xmlns="http://www.w3.org/2000/svg" viewBox="0 0 1200 357" width="1200" height="357" role="img" aria-label="logo-enigm-comp">
  <path fill="#000000" fill-rule="evenodd" d="
    M 169.00 356.50 L 154.00 356.50 L 141.00 350.50 L 27.00 284.50 L 17.00 278.50 L 8.50 270.00 L 2.50 257.00 L 2.50 229.00 L 54.50 199.00 L 2.50 168.00 L 2.50 105.00 L 8.50 87.00 L 14.00 80.50 L 26.00 72.50 L 155.00 0.00 L 170.00 0.00 L 176.00 1.50 L 234.50 36.00 L 76.50 127.00 L 127.00 157.50 L 199.50 197.00 L 198.00 199.50 L 111.50 249.00 L 162.00 278.50 L 317.00 188.50 L 320.50 188.00 L 320.50 258.00 L 313.50 272.00 L 300.00 282.50 L 177.00 353.50 L 169.00 356.50 Z
    M 273.00 156.50 L 198.50 116.00 L 287.00 65.50 L 310.00 79.50 L 318.50 90.00 L 321.50 99.00 L 321.50 128.00 L 273.00 156.50 Z
    M 759.00 114.50 L 744.00 113.50 L 738.00 110.50 L 729.50 100.00 L 729.50 83.00 L 732.50 78.00 L 742.00 70.50 L 749.00 68.50 L 765.00 70.50 L 773.50 77.00 L 777.50 84.00 L 778.50 96.00 L 774.50 105.00 L 767.00 111.50 L 759.00 114.50 Z
    M 542.00 264.50 L 437.50 264.00 L 438.00 92.50 L 542.50 93.00 L 542.00 126.50 L 479.50 127.00 L 480.00 160.50 L 535.50 161.00 L 535.00 193.50 L 479.50 194.00 L 479.50 230.00 L 542.00 230.50 L 542.00 264.50 Z
    M 877.00 331.50 L 850.00 329.50 L 839.00 326.50 L 824.00 318.50 L 811.50 307.00 L 807.50 301.00 L 801.50 286.00 L 800.50 278.00 L 842.00 277.50 L 845.50 285.00 L 856.00 292.50 L 865.00 294.50 L 878.00 293.50 L 887.00 289.50 L 895.50 277.00 L 896.50 247.00 L 881.00 260.50 L 861.00 266.50 L 840.00 264.50 L 819.00 253.50 L 806.50 239.00 L 797.50 218.00 L 795.50 206.00 L 795.50 185.00 L 798.50 170.00 L 810.50 147.00 L 826.00 133.50 L 840.00 127.50 L 850.00 125.50 L 868.00 126.50 L 883.00 132.50 L 896.00 144.50 L 897.00 127.50 L 939.00 127.50 L 939.50 270.00 L 937.50 283.00 L 930.50 301.00 L 915.00 318.50 L 901.00 326.50 L 877.00 331.50 Z
    M 704.00 264.50 L 662.50 264.00 L 661.50 181.00 L 657.50 172.00 L 651.00 165.50 L 637.00 161.50 L 622.00 165.50 L 615.50 172.00 L 611.50 182.00 L 611.50 264.00 L 568.50 264.00 L 569.00 127.50 L 610.00 127.50 L 611.50 129.00 L 611.00 144.50 L 625.00 132.50 L 642.00 126.50 L 666.00 127.50 L 677.00 131.50 L 690.50 142.00 L 699.50 156.00 L 704.50 178.00 L 704.00 264.50 Z
    M 1197.00 264.50 L 1154.50 264.00 L 1154.50 182.00 L 1150.50 173.00 L 1144.00 166.50 L 1137.00 163.50 L 1122.00 163.50 L 1113.00 167.50 L 1104.50 181.00 L 1103.50 264.00 L 1062.00 264.50 L 1061.50 183.00 L 1057.50 173.00 L 1051.00 166.50 L 1043.00 163.50 L 1029.00 163.50 L 1020.00 167.50 L 1015.50 172.00 L 1011.50 181.00 L 1010.50 264.00 L 969.00 264.50 L 968.50 128.00 L 1010.00 127.50 L 1011.00 143.50 L 1019.00 135.50 L 1030.00 129.50 L 1041.00 126.50 L 1059.00 126.50 L 1071.00 129.50 L 1082.00 135.50 L 1090.50 143.00 L 1096.00 151.50 L 1107.00 138.50 L 1128.00 127.50 L 1152.00 126.50 L 1172.00 133.50 L 1187.50 148.00 L 1192.50 157.00 L 1197.50 174.00 L 1197.00 264.50 Z
    M 774.00 264.50 L 732.50 264.00 L 733.00 127.50 L 774.50 128.00 L 774.00 264.50 Z
    M 869.50 229.00 L 884.00 224.50 L 891.50 217.00 L 896.50 204.00 L 896.50 188.00 L 891.50 175.00 L 884.00 167.50 L 875.00 163.50 L 866.00 162.50 L 853.00 166.50 L 844.50 174.00 L 839.50 185.00 L 838.50 202.00 L 843.50 216.00 L 849.00 222.50 L 860.00 228.50 L 869.50 229.00 Z
  "/>
</svg>
