<svg id="logo-enigm-comp" xmlns="http://www.w3.org/2000/svg" width="1195" height="356.5" version="1.1" viewBox="0 0 1195 356.5">
  
  <path d="M166.5,356.5h-15l-13-6-114-66-10-6-8.5-8.5-6-13v-28l52-30L0,168v-63l6-18,5.5-6.5,12-8L152.5,0h15l6,1.5,58.5,34.5L74,127l50.5,30.5,72.5,39.5-1.5,2.5-86.5,49.5,50.5,29.5,155-90,3.5-.5v70l-7,14-13.5,10.5-123,71-8,3ZM270.5,156.5l-74.5-40.5,88.5-50.5,23,14,8.5,10.5,3,9v29l-48.5,28.5ZM756.5,114.5l-15-1-6-3-8.5-10.5v-17l3-5,9.5-7.5,7-2,16,2,8.5,6.5,4,7,1,12-4,9-7.5,6.5-8,3ZM539.5,264.5l-104.5-.5.5-171.5,104.5.5-.5,33.5-62.5.5.5,33.5,55.5.5-.5,32.5-55.5.5v36l62.5.5v34ZM874.5,331.5l-27-2-11-3-15-8-12.5-11.5-4-6-6-15-1-8,41.5-.5,3.5,7.5,10.5,7.5,9,2,13-1,9-4,8.5-12.5,1-30-15.5,13.5-20,6-21-2-21-11-12.5-14.5-9-21-2-12v-21l3-15,12-23,15.5-13.5,14-6,10-2,18,1,15,6,13,12,1-17h42l.5,142.5-2,13-7,18-15.5,17.5-14,8-24,5ZM701.5,264.5l-41.5-.5-1-83-4-9-6.5-6.5-14-4-15,4-6.5,6.5-4,10v82h-43l.5-136.5h41l1.5,1.5-.5,15.5,14-12,17-6,24,1,11,4,13.5,10.5,9,14,5,22-.5,86.5ZM1194.5,264.5l-42.5-.5v-82l-4-9-6.5-6.5-7-3h-15l-9,4-8.5,13.5-1,83-41.5.5-.5-81.5-4-10-6.5-6.5-8-3h-14l-9,4-4.5,4.5-4,9-1,83-41.5.5-.5-136.5,41.5-.5,1,16,8-8,11-6,11-3h18l12,3,11,6,8.5,7.5,5.5,8.5,11-13,21-11,24-1,20,7,15.5,14.5,5,9,5,17-.5,90.5ZM771.5,264.5l-41.5-.5.5-136.5,41.5.5-.5,136.5ZM867,229l14.5-4.5,7.5-7.5,5-13v-16l-5-13-7.5-7.5-9-4-9-1-13,4-8.5,7.5-5,11-1,17,5,14,5.5,6.5,11,6,9.5.5Z" fill="#fff" fill-rule="evenodd"/>
</svg>